<?xml version="1.0" standalone="no"?>
<!DOCTYPE svg PUBLIC "-//W3C//DTD SVG 1.1//EN"
"http://www.w3.org/Graphics/SVG/1.1/DTD/svg11.dtd">
<svg height="200" version="1.1" width="777.0" xmlns="http://www.w3.org/2000/svg"><text style="font-family:sans-serif;font-size:15px;text-anchor:end;alignment-baseline:hanging;transform:translate(29px, 94px);" x="0" y="0">1</text><text style="font-family:sans-serif;font-size:15px;text-anchor:end;alignment-baseline:hanging;transform:translate(29px, 47px);" x="0" y="0">9</text><text style="font-family:sans-serif;font-size:15px;text-anchor:end;alignment-baseline:hanging;transform:translate(29px, 0px);" x="0" y="0">17</text><text style="font-family:sans-serif;font-size:15px;text-anchor:middle;transform:translate(11px, 50px) rotate(-90deg)" x="0" y="0">units</text><rect fill="#B6B6F2" height="100.0" width="267.0" x="32" y="0.0" /><rect fill="#B6F2BA" height="100.0" width="12.0" x="302.0" y="0.0" /><rect fill="#A5E5DB" height="100.0" width="117.0" x="317.0" y="0.0" /><rect fill="#F2F1B6" height="100.0" width="12.0" x="437.0" y="0.0" /><rect fill="#F2CFB6" height="100.0" width="267.0" x="452.0" y="0.0" /><rect fill="#F2B6B6" height="100.0" width="12.0" x="722.0" y="0.0" /><rect fill="#4B4CBF" height="100.0" width="12" x="32" y="0.0" /><text style="font-family:sans-serif;font-size:12px;text-anchor:end;transform:translate(44px, 108px) rotate(-45deg);" x="0" y="0">dog</text><rect fill="#4B4CBF" height="47.0588235294" width="12" x="47.0" y="52.9411764706" /><text style="font-family:sans-serif;font-size:12px;text-anchor:end;transform:translate(59px, 108px) rotate(-45deg);" x="0" y="0">cat</text><rect fill="#4B4CBF" height="29.4117647059" width="12" x="62.0" y="70.5882352941" /><text style="font-family:sans-serif;font-size:12px;text-anchor:end;transform:translate(74px, 108px) rotate(-45deg);" x="0" y="0">car</text><rect fill="#4B4CBF" height="23.5294117647" width="12" x="77.0" y="76.4705882353" /><text style="font-family:sans-serif;font-size:12px;text-anchor:end;transform:translate(89px, 108px) rotate(-45deg);" x="0" y="0">grass</text><rect fill="#4B4CBF" height="23.5294117647" width="12" x="92.0" y="76.4705882353" /><text style="font-family:sans-serif;font-size:12px;text-anchor:end;transform:translate(104px, 108px) rotate(-45deg);" x="0" y="0">motorbike</text><rect fill="#4B4CBF" height="17.6470588235" width="12" x="107.0" y="82.3529411765" /><text style="font-family:sans-serif;font-size:12px;text-anchor:end;transform:translate(119px, 108px) rotate(-45deg);" x="0" y="0">bicycle</text><rect fill="#4B4CBF" height="11.7647058824" width="12" x="122.0" y="88.2352941176" /><text style="font-family:sans-serif;font-size:12px;text-anchor:end;transform:translate(134px, 108px) rotate(-45deg);" x="0" y="0">water</text><rect fill="#4B4CBF" height="5.88235294118" width="12" x="137.0" y="94.1176470588" /><text style="font-family:sans-serif;font-size:12px;text-anchor:end;transform:translate(149px, 108px) rotate(-45deg);" x="0" y="0">bird</text><rect fill="#4B4CBF" height="5.88235294118" width="12" x="152.0" y="94.1176470588" /><text style="font-family:sans-serif;font-size:12px;text-anchor:end;transform:translate(164px, 108px) rotate(-45deg);" x="0" y="0">pool table</text><rect fill="#4B4CBF" height="5.88235294118" width="12" x="167.0" y="94.1176470588" /><text style="font-family:sans-serif;font-size:12px;text-anchor:end;transform:translate(179px, 108px) rotate(-45deg);" x="0" y="0">plant</text><rect fill="#4B4CBF" height="5.88235294118" width="12" x="182.0" y="94.1176470588" /><text style="font-family:sans-serif;font-size:12px;text-anchor:end;transform:translate(194px, 108px) rotate(-45deg);" x="0" y="0">airplane</text><rect fill="#4B4CBF" height="5.88235294118" width="12" x="197.0" y="94.1176470588" /><text style="font-family:sans-serif;font-size:12px;text-anchor:end;transform:translate(209px, 108px) rotate(-45deg);" x="0" y="0">pottedplant</text><rect fill="#4B4CBF" height="5.88235294118" width="12" x="212.0" y="94.1176470588" /><text style="font-family:sans-serif;font-size:12px;text-anchor:end;transform:translate(224px, 108px) rotate(-45deg);" x="0" y="0">sky</text><rect fill="#4B4CBF" height="5.88235294118" width="12" x="227.0" y="94.1176470588" /><text style="font-family:sans-serif;font-size:12px;text-anchor:end;transform:translate(239px, 108px) rotate(-45deg);" x="0" y="0">skyscraper</text><rect fill="#4B4CBF" height="5.88235294118" width="12" x="242.0" y="94.1176470588" /><text style="font-family:sans-serif;font-size:12px;text-anchor:end;transform:translate(254px, 108px) rotate(-45deg);" x="0" y="0">train</text><rect fill="#4B4CBF" height="5.88235294118" width="12" x="257.0" y="94.1176470588" /><text style="font-family:sans-serif;font-size:12px;text-anchor:end;transform:translate(269px, 108px) rotate(-45deg);" x="0" y="0">book</text><rect fill="#4B4CBF" height="5.88235294118" width="12" x="272.0" y="94.1176470588" /><text style="font-family:sans-serif;font-size:12px;text-anchor:end;transform:translate(284px, 108px) rotate(-45deg);" x="0" y="0">tree</text><rect fill="#4B4CBF" height="5.88235294118" width="12" x="287.0" y="94.1176470588" /><text style="font-family:sans-serif;font-size:12px;text-anchor:end;transform:translate(299px, 108px) rotate(-45deg);" x="0" y="0">sheep</text><rect fill="#55B05B" height="5.88235294118" width="12" x="302.0" y="94.1176470588" /><text style="font-family:sans-serif;font-size:12px;text-anchor:end;transform:translate(314px, 108px) rotate(-45deg);" x="0" y="0">bakery-shop</text><rect fill="#50BDAC" height="58.8235294118" width="12" x="317.0" y="41.1764705882" /><text style="font-family:sans-serif;font-size:12px;text-anchor:end;transform:translate(329px, 108px) rotate(-45deg);" x="0" y="0">wheel</text><rect fill="#50BDAC" height="17.6470588235" width="12" x="332.0" y="82.3529411765" /><text style="font-family:sans-serif;font-size:12px;text-anchor:end;transform:translate(344px, 108px) rotate(-45deg);" x="0" y="0">hair</text><rect fill="#50BDAC" height="11.7647058824" width="12" x="347.0" y="88.2352941176" /><text style="font-family:sans-serif;font-size:12px;text-anchor:end;transform:translate(359px, 108px) rotate(-45deg);" x="0" y="0">screen</text><rect fill="#50BDAC" height="11.7647058824" width="12" x="362.0" y="88.2352941176" /><text style="font-family:sans-serif;font-size:12px;text-anchor:end;transform:translate(374px, 108px) rotate(-45deg);" x="0" y="0">muzzle</text><rect fill="#50BDAC" height="5.88235294118" width="12" x="377.0" y="94.1176470588" /><text style="font-family:sans-serif;font-size:12px;text-anchor:end;transform:translate(389px, 108px) rotate(-45deg);" x="0" y="0">clouds</text><rect fill="#50BDAC" height="5.88235294118" width="12" x="392.0" y="94.1176470588" /><text style="font-family:sans-serif;font-size:12px;text-anchor:end;transform:translate(404px, 108px) rotate(-45deg);" x="0" y="0">ear</text><rect fill="#50BDAC" height="5.88235294118" width="12" x="407.0" y="94.1176470588" /><text style="font-family:sans-serif;font-size:12px;text-anchor:end;transform:translate(419px, 108px) rotate(-45deg);" x="0" y="0">head</text><rect fill="#50BDAC" height="5.88235294118" width="12" x="422.0" y="94.1176470588" /><text style="font-family:sans-serif;font-size:12px;text-anchor:end;transform:translate(434px, 108px) rotate(-45deg);" x="0" y="0">body</text><rect fill="#D4CF24" height="29.4117647059" width="12" x="437.0" y="70.5882352941" /><text style="font-family:sans-serif;font-size:12px;text-anchor:end;transform:translate(449px, 108px) rotate(-45deg);" x="0" y="0">food</text><rect fill="#F0883B" height="47.0588235294" width="12" x="452.0" y="52.9411764706" /><text style="font-family:sans-serif;font-size:12px;text-anchor:end;transform:translate(464px, 108px) rotate(-45deg);" x="0" y="0">dotted</text><rect fill="#F0883B" height="35.2941176471" width="12" x="467.0" y="64.7058823529" /><text style="font-family:sans-serif;font-size:12px;text-anchor:end;transform:translate(479px, 108px) rotate(-45deg);" x="0" y="0">striped</text><rect fill="#F0883B" height="29.4117647059" width="12" x="482.0" y="70.5882352941" /><text style="font-family:sans-serif;font-size:12px;text-anchor:end;transform:translate(494px, 108px) rotate(-45deg);" x="0" y="0">spiralled</text><rect fill="#F0883B" height="29.4117647059" width="12" x="497.0" y="70.5882352941" /><text style="font-family:sans-serif;font-size:12px;text-anchor:end;transform:translate(509px, 108px) rotate(-45deg);" x="0" y="0">chequered</text><rect fill="#F0883B" height="23.5294117647" width="12" x="512.0" y="76.4705882353" /><text style="font-family:sans-serif;font-size:12px;text-anchor:end;transform:translate(524px, 108px) rotate(-45deg);" x="0" y="0">perforated</text><rect fill="#F0883B" height="17.6470588235" width="12" x="527.0" y="82.3529411765" /><text style="font-family:sans-serif;font-size:12px;text-anchor:end;transform:translate(539px, 108px) rotate(-45deg);" x="0" y="0">honeycombed</text><rect fill="#F0883B" height="17.6470588235" width="12" x="542.0" y="82.3529411765" /><text style="font-family:sans-serif;font-size:12px;text-anchor:end;transform:translate(554px, 108px) rotate(-45deg);" x="0" y="0">freckled</text><rect fill="#F0883B" height="17.6470588235" width="12" x="557.0" y="82.3529411765" /><text style="font-family:sans-serif;font-size:12px;text-anchor:end;transform:translate(569px, 108px) rotate(-45deg);" x="0" y="0">studded</text><rect fill="#F0883B" height="11.7647058824" width="12" x="572.0" y="88.2352941176" /><text style="font-family:sans-serif;font-size:12px;text-anchor:end;transform:translate(584px, 108px) rotate(-45deg);" x="0" y="0">waffled</text><rect fill="#F0883B" height="11.7647058824" width="12" x="587.0" y="88.2352941176" /><text style="font-family:sans-serif;font-size:12px;text-anchor:end;transform:translate(599px, 108px) rotate(-45deg);" x="0" y="0">banded</text><rect fill="#F0883B" height="11.7647058824" width="12" x="602.0" y="88.2352941176" /><text style="font-family:sans-serif;font-size:12px;text-anchor:end;transform:translate(614px, 108px) rotate(-45deg);" x="0" y="0">zigzagged</text><rect fill="#F0883B" height="11.7647058824" width="12" x="617.0" y="88.2352941176" /><text style="font-family:sans-serif;font-size:12px;text-anchor:end;transform:translate(629px, 108px) rotate(-45deg);" x="0" y="0">polka-dotted</text><rect fill="#F0883B" height="11.7647058824" width="12" x="632.0" y="88.2352941176" /><text style="font-family:sans-serif;font-size:12px;text-anchor:end;transform:translate(644px, 108px) rotate(-45deg);" x="0" y="0">paisley</text><rect fill="#F0883B" height="5.88235294118" width="12" x="647.0" y="94.1176470588" /><text style="font-family:sans-serif;font-size:12px;text-anchor:end;transform:translate(659px, 108px) rotate(-45deg);" x="0" y="0">cobwebbed</text><rect fill="#F0883B" height="5.88235294118" width="12" x="662.0" y="94.1176470588" /><text style="font-family:sans-serif;font-size:12px;text-anchor:end;transform:translate(674px, 108px) rotate(-45deg);" x="0" y="0">cracked</text><rect fill="#F0883B" height="5.88235294118" width="12" x="677.0" y="94.1176470588" /><text style="font-family:sans-serif;font-size:12px;text-anchor:end;transform:translate(689px, 108px) rotate(-45deg);" x="0" y="0">frilly</text><rect fill="#F0883B" height="5.88235294118" width="12" x="692.0" y="94.1176470588" /><text style="font-family:sans-serif;font-size:12px;text-anchor:end;transform:translate(704px, 108px) rotate(-45deg);" x="0" y="0">knitted</text><rect fill="#F0883B" height="5.88235294118" width="12" x="707.0" y="94.1176470588" /><text style="font-family:sans-serif;font-size:12px;text-anchor:end;transform:translate(719px, 108px) rotate(-45deg);" x="0" y="0">grid</text><rect fill="#D92E2B" height="5.88235294118" width="12" x="722.0" y="94.1176470588" /><text style="font-family:sans-serif;font-size:12px;text-anchor:end;transform:translate(734px, 108px) rotate(-45deg);" x="0" y="0">red</text><text style="font-family:sans-serif;font-size:15px;text-anchor:end;transform:translate(299px, 3px) rotate(-90deg);" x="0" y="0">18 objects</text><text style="font-family:sans-serif;font-size:15px;text-anchor:end;transform:translate(314px, 3px) rotate(-90deg);" x="0" y="0">1 scene</text><text style="font-family:sans-serif;font-size:15px;text-anchor:end;transform:translate(434px, 3px) rotate(-90deg);" x="0" y="0">8 parts</text><text style="font-family:sans-serif;font-size:15px;text-anchor:end;transform:translate(449px, 3px) rotate(-90deg);" x="0" y="0">1 material</text><text style="font-family:sans-serif;font-size:15px;text-anchor:end;transform:translate(719px, 3px) rotate(-90deg);" x="0" y="0">18 textures</text><text style="font-family:sans-serif;font-size:15px;text-anchor:end;transform:translate(734px, 3px) rotate(-90deg);" x="0" y="0">1 color</text></svg>